<svg viewBox="0 0 200 210" xmlns="http://www.w3.org/2000/svg" fill="none" role="img" aria-label="المواهب الناشئة - Emerging Talent">

  <!-- ── HALF BRAIN (left hemisphere) ── -->
  <path
    d="M100,22 C94,14 80,8 62,10 C42,13 22,30 12,56 C4,80 4,112 12,140 C20,168 40,186 64,188 C82,190 98,182 100,176"
    stroke="currentColor" stroke-width="4" stroke-linecap="round" stroke-linejoin="round"
  />

  <!-- Gyrus 1 — upper fold -->
  <path
    d="M88,24 C78,32 68,48 66,64 C64,78 70,90 80,92 C90,94 98,84 98,72 C98,60 92,44 88,24Z"
    stroke="currentColor" stroke-width="2.5" stroke-linecap="round"
  />

  <!-- Gyrus 2 — mid fold -->
  <path
    d="M30,62 C18,78 12,98 16,116 C20,134 34,146 48,144 C62,142 72,130 72,116 C72,102 64,86 54,78"
    stroke="currentColor" stroke-width="2.5" stroke-linecap="round"
  />

  <!-- Gyrus 3 — lower temporal fold -->
  <path
    d="M16,148 C10,162 10,178 18,186 C26,194 44,194 58,190 C72,186 80,174 78,162 C76,150 66,142 54,140"
    stroke="currentColor" stroke-width="2.5" stroke-linecap="round"
  />

  <!-- Extra wrinkle details -->
  <path d="M46,46 C36,56 30,70 32,84" stroke="currentColor" stroke-width="2" stroke-linecap="round" opacity="0.7"/>
  <path d="M64,112 C60,124 60,138 64,150" stroke="currentColor" stroke-width="2" stroke-linecap="round" opacity="0.7"/>

  <!-- ── CENTRAL STEM ── -->
  <line x1="100" y1="10" x2="100" y2="194" stroke="currentColor" stroke-width="3.5" stroke-linecap="round"/>

  <!-- ── BUD at top (teardrop) ── -->
  <path
    d="M100,10 C100,10 107,16 108,24 C109,32 104,38 100,38 C96,38 91,32 92,24 C93,16 100,10 100,10Z"
    fill="currentColor"
  />

  <!-- ── LEAF 1 — top right ── -->
  <path d="M100,52 C104,46 118,40 128,42 C136,44 140,52 134,58 C128,64 112,62 100,52Z" fill="currentColor"/>

  <!-- ── LEAF 2 — upper-mid right ── -->
  <path d="M100,88 C106,78 124,68 138,72 C150,76 154,88 146,96 C138,104 118,100 100,88Z" fill="currentColor"/>

  <!-- ── LEAF 3 — lower-mid right ── -->
  <path d="M100,130 C108,118 130,108 148,114 C162,120 166,134 156,144 C146,154 122,150 100,130Z" fill="currentColor"/>

  <!-- ── LEAF 4 — bottom right ── -->
  <path d="M100,168 C110,154 136,146 158,154 C174,160 178,176 166,186 C154,196 126,192 100,168Z" fill="currentColor"/>

</svg>
